<svg width="30" height="30" viewBox="0 0 30 30" fill="none" xmlns="http://www.w3.org/2000/svg">
<g clip-path="url(#clip0_66_183)">
<path d="M27.5 10.4187V22.25C27.5001 23.2065 27.1346 24.1268 26.4784 24.8228C25.8222 25.5187 24.9249 25.9376 23.97 25.9937L23.75 26H6.25C5.29349 26 4.37311 25.6345 3.67717 24.9783C2.98124 24.3221 2.56237 23.4248 2.50625 22.47L2.5 22.25V10.4187L14.3062 18.29L14.4512 18.3725C14.6221 18.4559 14.8098 18.4993 15 18.4993C15.1902 18.4993 15.3779 18.4559 15.5488 18.3725L15.6938 18.29L27.5 10.4187Z" fill="#EFE8DD"/>
<path d="M23.7499 6C25.0999 6 26.2837 6.7125 26.9437 7.78375L14.9999 15.7462L3.05615 7.78375C3.36956 7.27471 3.80017 6.848 4.31204 6.53923C4.8239 6.23046 5.40219 6.04857 5.99865 6.00875L6.2499 6H23.7499Z" fill="#EFE8DD"/>
</g>
<defs>
<clipPath id="clip0_66_183">
<rect width="30" height="30" fill="white"/>
</clipPath>
</defs>
</svg>
