<svg width="40" height="40" viewBox="0 0 40 40" fill="none" xmlns="http://www.w3.org/2000/svg">
<path d="M14.5443 38.788C17.889 38.788 20.6037 36.0728 20.6037 32.7274V26.6667H14.5443C11.1995 26.6667 8.48486 29.3819 8.48486 32.7274C8.48486 36.0728 11.1995 38.788 14.5443 38.788Z" fill="#0ACF83"/>
<path d="M8.48486 20.606C8.48486 17.2606 11.1995 14.5454 14.5443 14.5454H20.6037V26.6666H14.5443C11.1995 26.6666 8.48486 23.9515 8.48486 20.606Z" fill="#A259FF"/>
<path d="M8.48535 8.48492C8.48535 5.13947 11.2 2.42432 14.5447 2.42432H20.6041V14.5455H14.5447C11.2 14.5455 8.48535 11.8304 8.48535 8.48492Z" fill="#F24E1E"/>
<path d="M20.6035 2.42432H26.6629C30.0077 2.42432 32.7223 5.13947 32.7223 8.48492C32.7223 11.8304 30.0077 14.5455 26.6629 14.5455H20.6035V2.42432Z" fill="#FF7262"/>
<path d="M32.7223 20.606C32.7223 23.9515 30.0077 26.6666 26.6629 26.6666C23.3181 26.6666 20.6035 23.9515 20.6035 20.606C20.6035 17.2606 23.3181 14.5454 26.6629 14.5454C30.0077 14.5454 32.7223 17.2606 32.7223 20.606Z" fill="#1ABCFE"/>
</svg>
