<svg width="30" height="30" viewBox="0 0 30 30" fill="none" xmlns="http://www.w3.org/2000/svg">
<path d="M24.0373 20.075L20.8623 19.7125C20.489 19.6686 20.1106 19.7099 19.7555 19.8333C19.4004 19.9567 19.078 20.159 18.8123 20.425L16.5123 22.725C12.9638 20.9202 10.0795 18.036 8.27481 14.4875L10.5873 12.175C11.1248 11.6375 11.3873 10.8875 11.2998 10.125L10.9373 6.97495C10.8664 6.36517 10.5738 5.80275 10.1151 5.39476C9.65641 4.98678 9.06369 4.76172 8.44981 4.76245H6.28731C4.87481 4.76245 3.69981 5.93745 3.78731 7.34995C4.44981 18.025 12.9873 26.55 23.6498 27.2125C25.0623 27.3 26.2373 26.125 26.2373 24.7125V22.55C26.2498 21.2875 25.2998 20.225 24.0373 20.075Z" fill="#EFE8DD"/>
</svg>
