<svg width="40" height="40" viewBox="0 0 40 40" fill="none" xmlns="http://www.w3.org/2000/svg">
<path d="M34.5161 6.09087C34.5161 6.09087 37.7538 4.82837 37.484 7.89444C37.3941 9.15696 36.5847 13.5757 35.9551 18.3552L33.7966 32.5133C33.7966 32.5133 33.6167 34.5874 31.9978 34.9481C30.3789 35.3088 27.9507 33.6856 27.5009 33.3249C27.1412 33.0544 20.7557 28.9963 18.5072 27.0124C17.8776 26.4713 17.1581 25.3891 18.5971 24.1266L28.0406 15.1088C29.1198 14.0266 30.1991 11.5016 25.7022 14.5677L13.1109 23.1347C13.1109 23.1347 11.6719 24.0365 8.97383 23.2249L3.12785 21.4213C3.12785 21.4213 0.969342 20.0686 4.65679 18.7159C13.6506 14.4775 24.7129 10.1489 34.5161 6.09087Z" fill="#EFE8DD"/>
</svg>
